HIERARCHY
ROOT Hips
{
	OFFSET 0.00000 0.00000 0.00000
	CHANNELS 6 Xposition Yposition Zposition Zrotation Yrotation Xrotation 
	JOINT LHipJoint
	{
		OFFSET 0 0 0
		CHANNELS 3 Zrotation Yrotation Xrotation
		JOINT LeftUpLeg
		{
			OFFSET 1.53794 -1.55850 0.93568
			CHANNELS 3 Zrotation Yrotation Xrotation
			JOINT LeftLeg
			{
				OFFSET 2.28545 -6.27922 0.00000
				CHANNELS 3 Zrotation Yrotation Xrotation
				JOINT LeftFoot
				{
					OFFSET 2.37329 -6.52057 0.00000
					CHANNELS 3 Zrotation Yrotation Xrotation
					JOINT LeftToeBase
					{
						OFFSET 0.14846 -0.40788 2.09160
						CHANNELS 3 Zrotation Yrotation Xrotation
						End Site
						{
							OFFSET 0.00000 -0.00000 1.07536
						}
					}
				}
			}
		}
	}
	JOINT RHipJoint
	{
		OFFSET 0 0 0
		CHANNELS 3 Zrotation Yrotation Xrotation
		JOINT RightUpLeg
		{
			OFFSET -1.78290 -1.55850 0.93568
			CHANNELS 3 Zrotation Yrotation Xrotation
			JOINT RightLeg
			{
				OFFSET -2.24144 -6.15831 0.00000
				CHANNELS 3 Zrotation Yrotation Xrotation
				JOINT RightFoot
				{
					OFFSET -2.35091 -6.45907 0.00000
					CHANNELS 3 Zrotation Yrotation Xrotation
					JOINT RightToeBase
					{
						OFFSET -0.14428 -0.39641 2.07944
						CHANNELS 3 Zrotation Yrotation Xrotation
						End Site
						{
							OFFSET -0.00000 -0.00000 1.06864
						}
					}
				}
			}
		}
	}
	JOINT LowerBack
	{
		OFFSET 0 0 0
		CHANNELS 3 Zrotation Yrotation Xrotation
		JOINT Spine
		{
			OFFSET -0.08841 2.11430 -0.15818
			CHANNELS 3 Zrotation Yrotation Xrotation
			JOINT Spine1
			{
				OFFSET -0.00033 2.12605 -0.08097
				CHANNELS 3 Zrotation Yrotation Xrotation
				JOINT Neck
				{
					OFFSET 0 0 0
					CHANNELS 3 Zrotation Yrotation Xrotation
					JOINT Neck1
					{
						OFFSET 0.04431 1.59447 0.43193
						CHANNELS 3 Zrotation Yrotation Xrotation
						JOINT Head
						{
							OFFSET 0.00455 1.62017 -0.58852
							CHANNELS 3 Zrotation Yrotation Xrotation
							End Site
							{
								OFFSET -0.00920 1.72955 -0.25850
							}
						}
					}
				}
				JOINT LeftShoulder
				{
					OFFSET 0 0 0
					CHANNELS 3 Zrotation Yrotation Xrotation
					JOINT LeftArm
					{
						OFFSET 2.86490 1.49927 -0.33774
						CHANNELS 3 Zrotation Yrotation Xrotation
						JOINT LeftForeArm
						{
							OFFSET 4.87408 -0.00000 0.00000
							CHANNELS 3 Zrotation Yrotation Xrotation
							JOINT LeftHand
							{
								OFFSET 2.76729 -0.00000 0.00000
								CHANNELS 3 Zrotation Yrotation Xrotation
								JOINT LeftFingerBase
								{
									OFFSET 0 0 0
									CHANNELS 3 Zrotation Yrotation Xrotation
									JOINT LeftHandIndex1
									{
										OFFSET 0.98922 -0.00000 0.00000
										CHANNELS 3 Zrotation Yrotation Xrotation
										End Site
										{
											OFFSET 0.79753 -0.00000 0.00000
										}
									}
								}
								JOINT LThumb
								{
									OFFSET 0 0 0
									CHANNELS 3 Zrotation Yrotation Xrotation
									End Site
									{
										OFFSET 0.80972 -0.00000 0.80972
									}
								}
							}
						}
					}
				}
				JOINT RightShoulder
				{
					OFFSET 0 0 0
					CHANNELS 3 Zrotation Yrotation Xrotation
					JOINT RightArm
					{
						OFFSET -2.94414 1.45463 -0.25291
						CHANNELS 3 Zrotation Yrotation Xrotation
						JOINT RightForeArm
						{
							OFFSET -4.71404 -0.00000 0.00000
							CHANNELS 3 Zrotation Yrotation Xrotation
							JOINT RightHand
							{
								OFFSET -2.83468 -0.00000 0.00000
								CHANNELS 3 Zrotation Yrotation Xrotation
								JOINT RightFingerBase
								{
									OFFSET 0 0 0
									CHANNELS 3 Zrotation Yrotation Xrotation
									JOINT RightHandIndex1
									{
										OFFSET -0.86820 -0.00000 0.00000
										CHANNELS 3 Zrotation Yrotation Xrotation
										End Site
										{
											OFFSET -0.69996 -0.00000 0.00000
										}
									}
								}
								JOINT RThumb
								{
									OFFSET 0 0 0
									CHANNELS 3 Zrotation Yrotation Xrotation
									End Site
									{
										OFFSET -0.71065 -0.00000 0.71065
									}
								}
							}
						}
					}
				}
			}
		}
	}
}
MOTION
Frames: 15
Frame Time: 0.133333
0.00 0.00 0.00 0 0 0 0 0 0 -21 0 0 0 0 0 0 0 0 0 0 0 0 0 0 21 0 0 0 0 0 0 0 0 0 0 0 0 0 0 0 0 0 0 0 0 0 0 -16 0 0 21 0 0 11 0 0 0 -8 0 0 0 0 0 0 0 0 0 0 0 0 0 0 0 0 0 0 0 0 8 0 0 0 0 0 0 0 0 0 0 0 0 0 0 0 0 0
0.00 0.00 0.00 -178.0790 8.6433 -170.4110 0.0000 0.0000 0.0000 -14.9858 -14.9417 -32.3243 2.3459 9.5521 27.5382 0.3379 11.9331 12.4666 0.0433 -1.3428 -3.6924 0.0000 0.0000 0.0000 20.9351 -0.2514 4.4929 -7.5464 -15.7753 50.9119 0.0850 -24.9457 17.0416 -0.8448 5.8625 -16.3859 -0.5592 5.1947 -4.4089 -3.4393 7.1321 -0.9125 -2.7788 3.6175 1.8912 1.8112 -0.4991 -33.5023 2.8051 -8.5659 43.9482 -1.9995 -3.2595 27.1029 0.0000 -0.0000 0.0000 -63.5933 32.4242 60.8072 105.4649 -59.0767 -73.3515 -0.0000 -0.0000 18.9680 16.3915 4.8361 1.4206 -7.1250 0.0000 -0.0000 -8.5094 34.9179 2.1262 0.0000 -0.0000 0.0000 88.3376 -13.1181 48.1292 -98.5023 59.7251 -67.3564 0.0000 0.0000 7.1109 -15.3245 -2.2429 0.6144 7.1250 -0.0000 -0.0000 9.0629 -32.2170 2.8670
0.00 0.00 0.00 -180.1370 8.0151 -172.2110 0.0000 0.0000 0.0000 -21.2006 -13.4013 -28.3054 4.0754 12.2601 36.6583 -0.6802 14.7092 -2.3747 0.0374 -1.2483 -3.4324 0.0000 0.0000 0.0000 17.4623 -0.0146 -3.1109 -12.8807 -18.7387 68.7545 0.4594 -21.7695 11.5711 -1.0114 6.3989 -17.9463 -2.8685 3.4390 -3.1108 -2.8429 4.8711 0.7074 -1.0652 2.4502 2.4807 1.8580 0.3479 -36.5836 1.9688 -6.1784 43.5193 -1.7543 -2.3765 27.8796 -0.0000 0.0000 0.0000 -69.8939 25.1544 57.3877 97.5829 -59.7816 -66.5621 -0.0000 -0.0000 19.7807 17.0252 5.4465 1.6648 -7.1250 0.0000 -0.0000 -8.0659 35.5779 1.8827 -0.0000 0.0000 0.0000 88.6744 -15.3396 43.1452 -86.8520 59.9625 -57.2741 0.0000 0.0000 6.7363 -15.5095 -4.2093 1.1669 7.1250 -0.0000 -0.0000 9.1499 -34.2364 2.4428
0.00 0.00 0.00 -183.6740 8.8132 -174.9400 0.0000 0.0000 0.0000 -28.7469 -10.6244 -20.4852 5.3245 13.7402 42.2065 -1.3432 20.5193 -12.8167 0.0425 -1.3312 -3.6607 0.0000 0.0000 0.0000 12.7752 4.1263 -15.2954 -19.1063 -19.9808 87.3861 0.6488 -16.9519 3.8412 -1.2975 7.2167 -20.3589 -7.7213 1.5509 0.1513 -2.2892 2.4527 2.8575 2.0046 1.1618 2.6702 3.1290 -0.8717 -38.6841 0.3656 -1.3514 41.9145 -0.4279 0.9790 26.6634 -0.0000 -0.0000 0.0000 -76.9117 13.9880 54.5412 89.4026 -59.9987 -59.4827 -0.0000 -0.0000 21.0252 17.8074 9.3450 2.9857 -7.1250 0.0000 -0.0000 -7.9791 39.6641 1.0571 -0.0000 -0.0000 0.0000 88.3389 -19.6585 36.1192 -73.2056 58.9070 -45.5090 0.0000 0.0000 6.5290 -18.0054 -6.2670 2.0320 7.1250 -0.0000 -0.0000 7.3571 -36.4813 1.5516
0.00 0.00 0.00 -182.7430 5.1040 -170.9350 0.0000 0.0000 0.0000 -31.8349 -5.4636 -1.6106 2.8783 10.4954 30.5964 -0.4956 13.6894 1.2545 0.5931 -4.9306 -13.7106 0.0000 0.0000 0.0000 12.8086 13.2900 -45.1443 -14.7767 -19.3329 74.5630 1.4852 -20.9623 -7.9049 -1.3479 7.3500 -20.7566 -8.1733 -3.9296 -0.8089 -0.2793 -5.0441 1.1598 4.0983 -2.6175 2.3425 9.0794 3.8615 -33.8363 -4.9056 5.8892 41.4306 -2.4050 3.7496 25.3564 0.0000 0.0000 0.0000 -76.3034 9.3191 56.4096 106.0076 -59.0093 -73.8169 -0.0000 -0.0000 21.1944 18.8846 8.3183 2.8332 -7.1250 0.0000 -0.0000 -6.8942 38.6780 1.0797 0.0000 0.0000 0.0000 88.4869 -38.6658 24.6823 -76.6460 59.3153 -48.4617 0.0000 0.0000 1.7382 -16.4010 -7.1810 2.1072 7.1250 -0.0000 -0.0000 8.8308 -37.3309 1.6825
0.00 0.00 0.00 -181.4660 3.7415 -169.2960 0.0000 0.0000 0.0000 -30.2763 -3.0285 3.6630 1.6702 8.1424 23.1473 0.5725 9.4671 14.0840 0.4220 -4.1695 -11.5539 0.0000 0.0000 0.0000 13.3094 14.4744 -47.1435 -9.5187 -17.1301 57.8672 1.5647 -21.7749 -4.4564 -1.3056 7.2384 -20.4237 -7.0136 -5.1750 -2.1019 0.8684 -6.7109 0.6310 4.4526 -3.4613 2.7402 9.8448 4.7015 -32.9217 -6.2843 7.7976 41.3130 -2.7650 4.3881 25.4825 0.0000 -0.0000 0.0000 -74.6983 9.7358 58.1881 109.0431 -58.5844 -76.4134 -0.0000 -0.0000 21.7541 17.9508 6.6570 2.1508 -7.1250 0.0000 -0.0000 -7.4542 36.8839 1.4984 0.0000 -0.0000 0.0000 89.8882 -42.0445 20.1377 -80.1063 59.6269 -51.4425 0.0000 0.0000 0.0772 -16.2132 -7.5879 2.1989 7.1250 -0.0000 -0.0000 9.0525 -37.7365 1.6347
0.00 0.00 0.00 -180.4800 2.4056 -167.2990 0.0000 0.0000 0.0000 -28.7121 -0.2013 9.5274 0.7052 5.3675 14.9598 2.7658 8.3801 30.0252 0.0059 -0.4940 -1.3575 0.0000 0.0000 0.0000 11.5884 17.1078 -46.3263 -4.0975 -12.2890 36.7621 0.7426 -19.5614 6.1976 -1.4114 7.5142 -21.2479 -5.5595 -6.0985 -4.3447 1.8041 -7.8989 0.0380 4.3177 -4.0436 3.4697 9.2777 5.0260 -29.5494 -6.4216 9.2889 40.6328 -2.2580 4.8685 23.7072 0.0000 -0.0000 0.0000 -72.4643 10.5728 60.5639 112.0523 -58.0803 -78.9747 -0.0000 -0.0000 21.8192 16.7345 4.8793 1.4650 -7.1250 0.0000 -0.0000 -8.2332 34.9780 2.0438 0.0000 -0.0000 0.0000 92.0677 -44.7239 14.7134 -84.4540 59.8835 -55.1989 0.0000 0.0000 0.3599 -16.0438 -6.3445 1.8202 7.1250 -0.0000 -0.0000 9.0041 -36.4506 1.9121
0.00 0.00 0.00 -182.1530 -1.0662 -167.7350 0.0000 0.0000 0.0000 -29.8584 -0.1425 10.5019 2.3969 9.6480 27.8441 3.3490 13.4407 33.1510 0.1136 2.1730 5.9840 0.0000 0.0000 0.0000 3.1637 21.7208 -41.6921 -2.0256 -8.9191 25.5427 0.1164 -18.0634 11.6022 -1.7777 8.3867 -23.8950 -5.8237 -6.6259 -5.0448 1.3709 -8.5430 0.1098 3.8556 -4.3806 3.9852 8.9959 5.1786 -29.0517 -6.9971 10.5663 40.9939 -2.1264 5.3104 24.1425 -0.0000 -0.0000 0.0000 -72.4328 13.8056 61.2700 112.7047 -57.9596 -79.5281 -0.0000 -0.0000 21.3695 16.4537 4.0321 1.1897 -7.1250 0.0000 -0.0000 -8.3591 34.0922 2.2572 -0.0000 -0.0000 0.0000 91.0277 -44.0679 13.9054 -88.2580 59.9885 -58.4914 0.0000 0.0000 1.4304 -15.3759 -5.6869 1.5609 7.1250 -0.0000 -0.0000 9.4619 -35.7413 2.1773
0.00 0.00 0.00 -181.3150 -2.5243 -169.5610 0.0000 0.0000 0.0000 -28.1668 0.0126 5.3060 6.4712 14.8699 46.8448 2.1581 16.8805 27.2491 0.0746 1.7618 4.8477 0.0000 0.0000 0.0000 4.4980 21.7192 -36.2904 -2.6784 -10.1553 29.4812 -0.3107 -11.2989 11.8888 -1.4418 7.5910 -21.4786 -4.9839 -5.6066 -3.7980 1.3654 -7.2820 0.6305 3.6373 -3.7392 3.5732 8.5074 4.7021 -29.3371 -7.1456 10.4566 41.3251 -2.1286 5.2441 24.5184 -0.0000 0.0000 0.0000 -75.2239 16.3428 58.6107 108.0506 -58.7324 -75.5657 -0.0000 -0.0000 22.1383 16.3384 4.9749 1.4562 -7.1250 0.0000 -0.0000 -8.5710 35.0584 2.1123 -0.0000 0.0000 0.0000 86.8707 -40.7540 18.4374 -85.8965 59.9363 -56.4470 0.0000 0.0000 2.1611 -15.0313 -5.3074 1.4229 7.1250 -0.0000 -0.0000 9.6910 -35.3366 2.3281
0.00 0.00 0.00 -179.3020 -2.8237 -172.1550 0.0000 0.0000 0.0000 -25.3542 -0.0901 -1.2251 12.4280 18.5658 67.3391 1.3049 17.3460 22.2396 0.0109 0.6735 1.8509 0.0000 0.0000 0.0000 9.2340 20.6514 -32.2765 -5.0369 -13.4253 40.9821 0.1644 -7.4784 -5.0111 -2.5517 9.9313 -28.7545 -3.2764 -3.7516 -1.1980 1.3246 -4.9776 1.3954 3.0083 -2.5623 2.5033 8.9370 4.6188 -28.9476 -7.7621 10.2400 40.4722 -2.5998 5.1654 23.6797 0.0000 -0.0000 0.0000 -78.5799 19.1116 53.7419 100.4268 -59.5852 -69.0173 -0.0000 -0.0000 22.3045 16.4812 6.6286 1.9560 -7.1250 0.0000 -0.0000 -8.6809 36.7677 1.7742 0.0000 -0.0000 0.0000 82.1848 -34.7035 25.3552 -79.9835 59.6175 -51.3366 0.0000 0.0000 2.6097 -15.1717 -3.3788 0.9156 7.1250 -0.0000 -0.0000 9.3190 -33.3740 2.6862
0.00 0.00 0.00 -175.5820 -3.4818 -175.2870 0.0000 0.0000 0.0000 -20.0021 -1.3705 -10.1950 19.0846 19.9799 87.3227 0.4986 15.8876 15.7971 0.0011 0.2184 0.6002 0.0000 0.0000 0.0000 16.4766 19.1183 -25.6698 -6.9743 -15.3102 48.7771 -0.0516 -11.4252 -16.9713 -2.7700 10.3130 -29.9964 -0.1326 -1.7154 2.8763 1.9562 -2.4510 2.7554 2.1189 -1.3092 1.3065 9.4270 4.8022 -28.6872 -8.9256 9.9569 38.3832 -3.2929 4.7961 21.4593 -0.0000 0.0000 0.0000 -81.8277 20.1928 48.5086 88.3316 -59.9895 -58.5551 -0.0000 -0.0000 20.4513 16.9903 11.9044 3.6065 -7.1250 0.0000 -0.0000 -9.1711 42.2297 0.6327 -0.0000 0.0000 0.0000 78.7636 -23.6216 32.4049 -71.6793 58.6930 -44.2034 0.0000 0.0000 5.0208 -15.4868 -3.9592 1.0960 7.1250 -0.0000 -0.0000 9.1365 -33.9794 2.4968
0.00 0.00 0.00 -174.2110 -12.7943 -173.3250 0.0000 0.0000 0.0000 -14.3601 -8.8149 -47.2886 19.2907 19.9879 87.9258 -0.9787 18.9242 1.4468 0.0640 -1.6325 -4.4910 0.0000 0.0000 0.0000 22.6135 8.1980 -1.0633 -3.7215 -11.7803 34.9592 0.8065 -15.6699 -5.4121 -4.0158 12.1814 -36.3766 2.1068 3.9156 2.4273 0.2562 5.2166 1.4985 -1.0125 2.6035 0.3449 4.2311 3.8219 -29.9967 -2.5309 1.6446 43.0963 -2.2255 0.0641 24.5868 -0.0000 -0.0000 0.0000 -71.7020 27.4334 53.1045 94.0023 -59.9394 -63.4654 -0.0000 -0.0000 18.5130 16.3679 8.8037 2.5738 -7.1250 0.0000 -0.0000 -9.1232 38.9946 1.3631 -0.0000 -0.0000 0.0000 78.9739 -5.2852 42.7610 -82.0497 59.7598 -53.1204 0.0000 0.0000 10.1934 -12.6580 -2.5580 0.5743 7.1250 -0.0000 -0.0000 11.2280 -32.4598 3.5061
0.00 0.00 0.00 -174.5440 -16.7029 -171.2710 0.0000 0.0000 0.0000 -15.8728 -9.4458 -50.6082 12.9449 18.7622 68.9543 -0.5706 15.2629 2.5032 0.0679 -1.6811 -4.6250 0.0000 0.0000 0.0000 22.3839 3.3876 6.6117 -1.5858 -7.9442 22.5446 -0.4150 -15.0548 14.6741 -3.1586 10.9474 -32.1027 1.6441 4.7115 -0.2712 -0.7119 6.2787 0.0810 -1.5858 3.1455 0.4901 3.3838 2.9700 -28.9463 -0.4134 -0.9441 44.8181 -1.7042 -0.7809 25.7505 -0.0000 0.0000 0.0000 -68.5697 30.8747 54.7972 98.7902 -59.7060 -67.6050 -0.0000 -0.0000 16.6022 15.7608 9.5024 2.6677 -7.1250 0.0000 -0.0000 -9.7688 39.6623 1.2995 -0.0000 0.0000 0.0000 78.7687 -5.5419 45.7868 -86.1553 59.9441 -56.6710 0.0000 0.0000 9.5343 -11.4600 -1.4331 0.2905 7.1250 -0.0000 -0.0000 12.0246 -31.3003 4.1074
0.00 0.00 0.00 -175.3870 -20.3100 -169.1570 0.0000 0.0000 0.0000 -18.5492 -9.5564 -49.7721 6.7679 15.1333 47.9908 0.1067 7.9411 7.5775 0.1089 -2.1278 -5.8590 0.0000 0.0000 0.0000 22.0370 0.5072 13.1589 -0.5437 -4.7242 13.1236 -3.0967 -20.6721 32.9166 -1.1778 6.8881 -19.3843 0.3627 5.1048 -3.0771 -1.7106 6.7970 -0.7774 -1.6673 3.3922 1.1673 2.3973 2.0400 -28.7126 1.2212 -3.0295 45.4623 -1.1831 -1.4783 26.4006 -0.0000 -0.0000 0.0000 -66.1081 32.8293 56.2279 104.3359 -59.2090 -72.3823 -0.0000 -0.0000 15.8370 15.2939 10.0469 2.7312 -7.1250 0.0000 -0.0000 -10.2755 40.1786 1.2363 -0.0000 -0.0000 0.0000 78.1883 -6.6332 48.3439 -90.7118 59.9981 -60.6164 0.0000 0.0000 7.6878 -10.7538 -0.8882 0.1687 7.1250 -0.0000 -0.0000 12.5048 -30.7414 4.4502
0.00 0.00 0.00 -172.5710 -24.6824 -170.4430 0.0000 0.0000 0.0000 -14.7024 -14.4197 -40.8829 2.2959 9.4570 27.2355 0.2086 13.2689 11.7361 0.1570 -2.5532 -7.0373 0.0000 0.0000 0.0000 25.0640 -3.4182 12.2339 -2.1717 -9.2149 26.4698 -1.9150 -22.1101 27.4015 -1.1059 6.6816 -18.7754 1.4144 5.5037 -4.3290 -1.3207 7.2746 -1.0878 -1.7083 3.6316 1.6398 0.6620 1.0661 -28.7400 2.4671 -4.7097 46.4172 -0.6418 -2.2568 27.8498 0.0000 -0.0000 0.0000 -66.8383 30.2523 57.6254 107.5593 -58.8023 -75.1456 -0.0000 -0.0000 18.2728 15.3627 8.2167 2.2486 -7.1250 0.0000 -0.0000 -9.8763 38.3217 1.6434 0.0000 -0.0000 0.0000 78.0927 -9.7661 48.9976 -88.6470 59.9931 -58.8283 0.0000 0.0000 7.4727 -10.1580 -0.5839 0.1046 7.1250 -0.0000 -0.0000 12.9278 -30.4271 4.7076
